<?xml version="1.0" encoding="UTF-8" standalone="no"?>
<!DOCTYPE svg PUBLIC "-//W3C//DTD SVG 1.1//EN" "http://www.w3.org/Graphics/SVG/1.1/DTD/svg11.dtd">
<svg width="100%" height="100%" viewBox="0 0 312 356" version="1.1" xmlns="http://www.w3.org/2000/svg" xmlns:xlink="http://www.w3.org/1999/xlink" xml:space="preserve" xmlns:serif="http://www.serif.com/" style="fill-rule:evenodd;clip-rule:evenodd;stroke-linejoin:round;stroke-miterlimit:1.41421;">
    <g transform="matrix(1,0,0,1,-374.685,-70.0531)">
        <clipPath id="_clip1">
            <rect x="374.685" y="70.053" width="311.677" height="355.974"/>
        </clipPath>
        <g clip-path="url(#_clip1)">
            <rect x="375.041" y="66.628" width="10.837" height="363.802" style="fill:rgb(48,48,48);"/>
            <g transform="matrix(1,0,0,1,302.54,0)">
                <rect x="375.041" y="66.628" width="10.837" height="363.802" style="fill:rgb(48,48,48);"/>
            </g>
            <g transform="matrix(0.828313,0.560265,-0.560265,0.828313,305.188,-402.703)">
                <rect x="375.041" y="66.628" width="10.837" height="363.802" style="fill:rgb(48,48,48);"/>
            </g>
            <g transform="matrix(0.828313,0.560265,-0.560265,0.828313,308.285,-320.654)">
                <rect x="375.041" y="66.628" width="10.837" height="363.802" style="fill:rgb(48,48,48);"/>
            </g>
            <g transform="matrix(0.753179,0.509445,-0.631007,0.932899,364.398,-265.216)">
                <rect x="375.041" y="66.628" width="10.837" height="363.802" style="fill:rgb(48,48,48);"/>
            </g>
            <g transform="matrix(0.744006,-0.603028,0.823719,1.01629,41.3505,230.455)">
                <rect x="375.041" y="66.628" width="10.837" height="363.802" style="fill:rgb(48,48,48);"/>
            </g>
            <g transform="matrix(0.7064,-0.572547,0.709167,0.874959,62.8615,313.586)">
                <rect x="375.041" y="66.628" width="10.837" height="363.802" style="fill:rgb(48,48,48);"/>
            </g>
            <g transform="matrix(0.7064,-0.572547,0.709167,0.874959,69.2791,390.699)">
                <rect x="375.041" y="66.628" width="10.837" height="363.802" style="fill:rgb(48,48,48);"/>
            </g>
            <g transform="matrix(0.7064,-0.572547,0.709167,0.874959,62.8615,475.844)">
                <rect x="375.041" y="66.628" width="10.837" height="363.802" style="fill:rgb(48,48,48);"/>
            </g>
            <g transform="matrix(0.7064,-0.572547,0.709167,0.874959,125.87,228.441)">
                <rect x="375.041" y="66.628" width="10.837" height="363.802" style="fill:rgb(48,48,48);"/>
            </g>
            <g transform="matrix(0.7064,-0.572547,0.709167,0.874959,195.912,228.441)">
                <rect x="375.041" y="66.628" width="10.837" height="363.802" style="fill:rgb(48,48,48);"/>
            </g>
            <g transform="matrix(0.7064,-0.572547,0.709167,0.874959,258.695,228.441)">
                <rect x="375.041" y="66.628" width="10.837" height="363.802" style="fill:rgb(48,48,48);"/>
            </g>
            <g transform="matrix(-0.725979,0.588416,0.167694,0.206898,885.541,-165.163)">
                <rect x="375.041" y="66.628" width="10.837" height="363.802" style="fill:rgb(48,48,48);"/>
            </g>
            <g transform="matrix(0.816615,0.552353,-0.656155,0.97008,352.462,-206.825)">
                <rect x="375.041" y="66.628" width="10.837" height="363.802" style="fill:rgb(48,48,48);"/>
            </g>
            <g transform="matrix(0.773457,0.523161,-0.66934,0.989572,423.719,-197.224)">
                <rect x="375.041" y="66.628" width="10.837" height="363.802" style="fill:rgb(48,48,48);"/>
            </g>
            <g transform="matrix(0.652304,0.441214,-0.638906,0.944578,481.487,-89.4115)">
                <rect x="375.041" y="66.628" width="10.837" height="363.802" style="fill:rgb(48,48,48);"/>
            </g>
            <g transform="matrix(0.652304,0.441214,-0.638906,0.944578,481.487,-12.2984)">
                <rect x="375.041" y="66.628" width="10.837" height="363.802" style="fill:rgb(48,48,48);"/>
            </g>
            <g transform="matrix(0.652304,0.441214,-0.638906,0.944578,473.859,85.5232)">
                <rect x="375.041" y="66.628" width="10.837" height="363.802" style="fill:rgb(48,48,48);"/>
            </g>
            <g transform="matrix(0.652304,0.441214,-0.638906,0.944578,481.487,161.912)">
                <rect x="375.041" y="66.628" width="10.837" height="363.802" style="fill:rgb(48,48,48);"/>
            </g>
        </g>
    </g>
</svg>
